<?xml version="1.0" encoding="UTF-8" standalone="no"?>
<svg
   xmlns:dc="http://purl.org/dc/elements/1.1/"
   xmlns:cc="http://creativecommons.org/ns#"
   xmlns:rdf="http://www.w3.org/1999/02/22-rdf-syntax-ns#"
   xmlns:svg="http://www.w3.org/2000/svg"
   xmlns="http://www.w3.org/2000/svg"
   xmlns:sodipodi="http://sodipodi.sourceforge.net/DTD/sodipodi-0.dtd"
   xmlns:inkscape="http://www.inkscape.org/namespaces/inkscape"
   xml:space="preserve"
   version="1.1"
   style="clip-rule:evenodd;fill-rule:evenodd;image-rendering:optimizeQuality;shape-rendering:geometricPrecision;text-rendering:geometricPrecision"
   viewBox="0 0 330.65927 244.90319"
   x="0px"
   y="0px"
   id="svg78"
   sodipodi:docname="bloodreads-logo-texty-matching-inverted.svg"
   inkscape:version="0.92.3 (2405546, 2018-03-11)"
   width="330.65927"
   height="244.90318"><metadata
     id="metadata82"><rdf:RDF><cc:Work
         rdf:about=""><dc:format>image/svg+xml</dc:format><dc:type
           rdf:resource="http://purl.org/dc/dcmitype/StillImage" /><dc:title></dc:title></cc:Work></rdf:RDF></metadata><sodipodi:namedview
     pagecolor="#ffffff"
     bordercolor="#666666"
     borderopacity="1"
     objecttolerance="10"
     gridtolerance="10"
     guidetolerance="10"
     inkscape:pageopacity="0"
     inkscape:pageshadow="2"
     inkscape:window-width="3200"
     inkscape:window-height="1662"
     id="namedview80"
     showgrid="false"
     inkscape:zoom="4"
     inkscape:cx="160.54459"
     inkscape:cy="110.18074"
     inkscape:window-x="0"
     inkscape:window-y="64"
     inkscape:window-maximized="1"
     inkscape:current-layer="g1427"
     fit-margin-top="0"
     fit-margin-left="0"
     fit-margin-right="0"
     fit-margin-bottom="0"
     inkscape:pagecheckerboard="true" /><defs
     id="defs68"><style
       type="text/css"
       id="style66">
   
    .fil0 {fill:black}
   
  </style></defs><g
     id="g1433"
     style="fill:#f2f2f2"><path
       inkscape:connector-curvature="0"
       id="path98"
       d="m 111.8955,187 158,-64 v 12 l -159,64 -95,-61 c -22.9999995,-15 -18.9999995,-73 -1,-83 25,-9 50,-18 75,-28 24,-9 47,-18 71,-26 l 1,-1 2,1 c 16,8 33,17 50,26 18,9 36,18 54,28 l 2,1 c 0,3 0,5 0,8 l -156,62 -92,-57 c -13.9999995,-8 -16.9999995,50 -4,57 z"
       style="fill:#f2f2f2" /><path
       sodipodi:nodetypes="cccscccccc"
       inkscape:connector-curvature="0"
       id="path96"
       d="m 112.23339,170.70508 v -0.5332 c -0.0148,-0.074 -0.0419,-0.14726 -0.0449,-0.22266 -0.0117,-0.28108 0,-0.56243 0,-0.84375 0,-0.18017 -0.002,-0.36094 0,-0.54102 L 26.8955,116 c -4,-3 -8,3 -4,6 l 88,54 0.45898,0.45898 c 0.2811,-1.91239 0.6392,-3.84961 0.87891,-5.7539 z"
       style="fill:#f2f2f2" /><path
       sodipodi:nodetypes="ccsccccsccccccs"
       inkscape:connector-curvature="0"
       id="path94"
       d="m 112.8955,152 c -75.333333,64.5 -37.666667,32.25 0,0 z M 24.698234,98.183594 C 21.67675,98.145508 19.6455,102.5625 22.8955,105 c 29,18 59,36 88,54 l 0.35352,0.35352 c -0.002,-0.16603 -0.005,-0.33205 -0.008,-0.49805 -0.0343,-1.78518 -0.0312,-0.81312 -0.0312,-1.72656 0,-0.14658 -0.0133,-0.29349 0,-0.43946 0.008,-0.086 0.0424,-0.16799 0.0625,-0.25195 0.10549,-0.43954 0.21069,-0.87841 0.31446,-1.31836 0.15798,-0.66985 0.29555,-1.34615 0.4707,-2.01172 0.10269,-0.39022 0.27762,-0.87466 0.45703,-1.3418 C 83.641553,133.85306 54.772983,116.92124 26.8955,99 c -0.75,-0.5625 -1.5,-0.807617 -2.197266,-0.816406 z"
       style="fill:#f2f2f2" /><path
       sodipodi:nodetypes="ccccccccccccccccc"
       inkscape:connector-curvature="0"
       id="path70"
       d="m 22.8955,88 c -4,-3 0,-9 4,-6 l 86,53 26.70012,26.00993 16.29713,-29.43744 c 25.64112,-10.18956 49.1118,-20.79305 74.5969,-31.36397 l 18.44339,13.31847 18.95034,-43.067728 -0.0268,13.728915 c 0,0 -12.64092,32.506593 -15.73067,40.593623 l -20.78533,-15.67437 c -24.74352,10.7245 -45.87441,19.01195 -71.00946,28.76399 L 140.90798,170.61068 116.72393,147.3033 111.8955,143 l -1,-1 z"
       style="fill:#f2f2f2" /></g><g
     id="g1427"><path
       id="path4615"
       d="M 267.88281 80.458984 L 267.86328 80.501953 L 267.86328 81.03125 L 267.88281 80.458984 z M 21.304688 84.279297 C 20.341169 87.295938 21.831625 91.706513 24.894531 94 L 112.89453 148 C 121.65991 156.76538 131.61993 166.237 141.4707 176.61133 L 162.33203 143.87109 C 187.46708 134.11905 208.59632 125.83192 233.33984 115.10742 L 254.125 130.78125 C 257.21475 122.69422 267.37109 95.4375 267.37109 95.4375 L 267.74609 84.474609 C 267.53921 85.006638 255.18907 116.76144 252.125 124.78125 L 231.33984 109.10742 C 206.59632 119.83192 185.46708 128.11905 160.33203 137.87109 L 140.9082 170.61133 L 116.72461 147.30273 L 111.89453 143 L 110.89453 142 L 22.894531 88 C 21.499504 86.953729 21.092971 85.546318 21.304688 84.279297 z "
       style="fill:#ff0000;fill-opacity:1" /><path
       sodipodi:nodetypes="cccccsccc"
       inkscape:connector-curvature="0"
       id="path4619"
       d="m 138.46054,192.54184 c 1.49206,2.53486 5.16637,1.83137 5.90842,-0.9643 -1.00055,-6.62587 -0.51245,-17.34393 -0.46411,-18.74341 0.0303,-0.49736 0.0611,-0.99468 0.0917,-1.49197 -2.01325,-1.30664 -5.08242,-0.27225 -6.45347,0.90297 0.0511,0.96646 0.0716,1.94673 0.0886,2.93115 0.0365,2.10709 2.0571,0.23319 2.32798,2.28362 0.46932,5.37766 -0.51266,9.46504 -1.49921,15.08194 z"
       style="fill:#ff0000;fill-opacity:1" /><path
       style="fill:#ff0000;fill-opacity:1"
       d="m 258.15021,145.85879 c 0.46218,-2.27552 -1.18303,-4.60346 -1.18453,-6.91511 -0.11273,-2.84359 0.11688,-5.17384 0.22059,-7.77584 0.0676,-2.52976 -1.43548,-1.80787 -1.28142,-4.33371 0.0303,-0.49736 0.0611,-0.99468 0.0917,-1.49197 -2.01325,-1.30664 -5.08242,-0.27225 -6.45347,0.90297 0.0511,0.96646 -0.0168,2.83061 2.1e-4,3.81503 0.0365,2.10709 1.79194,0.10061 2.06282,2.15104 0.52835,5.09692 -0.73165,8.14429 0.86063,11.47895 1.99003,2.80433 4.94142,4.96431 5.68347,2.16864 z"
       id="path4679"
       inkscape:connector-curvature="0"
       sodipodi:nodetypes="cccsccsccc" /><g
       aria-label="BloodReads"
       transform="matrix(0.5941167,-0.24082648,1.3540125,1.1343191,0,0)"
       style="font-style:normal;font-weight:normal;font-size:42.79822922px;line-height:1.25;font-family:sans-serif;letter-spacing:0px;word-spacing:0px;fill:#ff0000;fill-opacity:1;stroke:none;stroke-width:1.06995571"
       id="text831"><path
         d="m -121.8317,168.45082 q 0.12538,5.20349 0.22987,12.74752 2.11065,0.12538 3.59438,0.12538 0.75232,0 1.33745,-0.0418 2.15245,-0.10449 2.92566,-1.65091 0.77321,-1.54642 1.02398,-4.70195 0.0627,-0.8568 0.0627,-1.58822 0,-1.96437 -0.48064,-3.07194 -0.68962,-1.48373 -1.90168,-1.7136 -1.08668,-0.18808 -2.52861,-0.18808 h -0.41795 q -1.31655,0.0418 -3.84515,0.0836 z m 13.58342,-4.17952 q 1.10757,0.68962 1.83899,1.83899 0.96128,1.52552 1.33744,3.78246 0.27167,1.63001 0.27167,3.469 0,0.71052 -0.0418,1.44193 -0.14628,2.67489 -0.68962,6.0603 -0.52244,3.36451 -1.14936,4.66016 -0.60603,1.29565 -2.11066,1.85988 -1.27475,0.45975 -3.17643,0.45975 -0.37616,0 -0.79411,-0.0209 -2.44501,-0.10449 -4.68105,-0.37616 -1.7345,-0.18808 -4.09593,-0.41795 0.0209,0.50154 0.0209,1.00308 l -8.6098,-0.37615 q 0.0627,-4.20041 0.0627,-8.02467 0,-4.51388 -0.0627,-8.17095 -0.12539,-5.57965 -0.33436,-17.38678 l -0.81501,-5.39158 q 0.35526,-0.0627 0.71052,-0.12538 0,-0.62693 -0.0209,-1.25386 l 8.06647,-0.29256 v 0.33436 q 2.67489,-0.33436 3.97054,-0.33436 2.90476,0 5.9767,0.35526 3.09284,0.33436 4.24221,2.23604 1.14937,1.90168 1.40014,4.36759 0.10448,1.00308 0.10448,2.08976 0,1.60911 -0.22987,3.4481 -0.35526,2.94656 -1.19116,4.76464 z m -13.68791,-0.41795 q 2.19424,-0.35526 3.90785,-0.56423 2.71668,-0.56424 3.28091,-1.27475 1.02399,-1.29565 1.27476,-3.13464 0.0836,-0.66872 0.0836,-1.35834 0,-1.21206 -0.27167,-2.50771 -0.41795,-2.00617 -2.23604,-2.50771 -0.33436,-0.0836 -1.02398,-0.0836 -1.65091,0 -5.41247,0.52244 0.12538,3.469 0.29256,7.66941 0.0418,1.46283 0.10449,3.23912 z"
         style="font-style:normal;font-variant:normal;font-weight:normal;font-stretch:normal;font-size:42.79822922px;font-family:Spoopy;-inkscape-font-specification:'Spoopy, Normal';font-variant-ligatures:normal;font-variant-caps:normal;font-variant-numeric:normal;font-feature-settings:normal;text-align:start;writing-mode:lr-tb;text-anchor:start;fill:#ff0000;stroke-width:1.06995571"
         id="path1480" /><path
         d="m -103.7762,147.86671 h 8.672492 l -0.438849,40.18603 -7.690303,-0.45974 z"
         style="font-style:normal;font-variant:normal;font-weight:normal;font-stretch:normal;font-size:42.79822922px;font-family:Spoopy;-inkscape-font-specification:'Spoopy, Normal';font-variant-ligatures:normal;font-variant-caps:normal;font-variant-numeric:normal;font-feature-settings:normal;text-align:start;writing-mode:lr-tb;text-anchor:start;fill:#ff0000;stroke-width:1.06995571"
         id="path1482" /><path
         d="m -81.290414,154.40765 q 6.37376,0.10449 8.547107,0.79411 2.194246,0.66872 3.406305,1.63001 1.232957,0.94039 1.859884,3.11374 0.501542,1.73449 0.501542,7.12607 0,1.42103 -0.0418,3.11374 -0.16718,8.90236 -0.731415,12.26687 -0.564234,3.34361 -1.692703,4.45119 -1.107571,1.12846 -4.179515,1.46283 -1.525522,0.18807 -3.573485,0.18807 -2.047962,0 -4.597466,-0.18807 -5.099007,-0.33437 -6.833506,-0.96129 -1.734499,-0.60603 -3.364509,-2.96746 -1.630011,-2.34053 -1.901679,-7.48133 -0.188078,-4.55567 -0.188078,-7.54402 0,-1.14937 0.0209,-2.19425 0.104488,-3.74066 0.543337,-6.74991 0.459747,-3.03015 2.424118,-4.13772 1.964372,-1.12847 3.698871,-1.40014 1.734498,-0.29257 6.102091,-0.52244 z m 0.898596,28.81775 q 2.674889,0 4.137719,-1.00308 1.358342,-0.94039 1.358342,-5.9976 v -0.83591 q -0.125385,-6.64543 -0.355258,-10.00993 -0.229874,-3.36451 -0.835903,-4.57657 -0.60603,-1.23296 -2.403221,-1.67181 -1.797191,-0.45975 -3.53169,-0.45975 -1.734499,0 -2.862967,0.96129 -1.107572,0.94039 -1.232957,4.80644 -0.104488,3.86606 -0.104488,9.94725 0,5.26619 0.731415,6.49914 0.731415,1.21206 1.901679,1.67181 1.170264,0.43885 2.528606,0.77321 z"
         style="font-style:normal;font-variant:normal;font-weight:normal;font-stretch:normal;font-size:42.79822922px;font-family:Spoopy;-inkscape-font-specification:'Spoopy, Normal';font-variant-ligatures:normal;font-variant-caps:normal;font-variant-numeric:normal;font-feature-settings:normal;text-align:start;writing-mode:lr-tb;text-anchor:start;fill:#ff0000;stroke-width:1.06995571"
         id="path1484" /><path
         d="m -53.204072,154.40765 q 6.37376,0.10449 8.547107,0.79411 2.194245,0.66872 3.406305,1.63001 1.232956,0.94039 1.859884,3.11374 0.501541,1.73449 0.501541,7.12607 0,1.42103 -0.0418,3.11374 -0.16718,8.90236 -0.731415,12.26687 -0.564234,3.34361 -1.692703,4.45119 -1.107572,1.12846 -4.179515,1.46283 -1.525523,0.18807 -3.573485,0.18807 -2.047962,0 -4.597466,-0.18807 -5.099008,-0.33437 -6.833506,-0.96129 -1.734499,-0.60603 -3.364509,-2.96746 -1.630011,-2.34053 -1.901679,-7.48133 -0.188079,-4.55567 -0.188079,-7.54402 0,-1.14937 0.0209,-2.19425 0.104488,-3.74066 0.543337,-6.74991 0.459746,-3.03015 2.424118,-4.13772 1.964372,-1.12847 3.698871,-1.40014 1.734498,-0.29257 6.102091,-0.52244 z m 0.898596,28.81775 q 2.674889,0 4.137719,-1.00308 1.358342,-0.94039 1.358342,-5.9976 v -0.83591 q -0.125385,-6.64543 -0.355258,-10.00993 -0.229874,-3.36451 -0.835903,-4.57657 -0.60603,-1.23296 -2.403221,-1.67181 -1.797192,-0.45975 -3.53169,-0.45975 -1.734499,0 -2.862968,0.96129 -1.107571,0.94039 -1.232956,4.80644 -0.104488,3.86606 -0.104488,9.94725 0,5.26619 0.731415,6.49914 0.731415,1.21206 1.901679,1.67181 1.170264,0.43885 2.528606,0.77321 z"
         style="font-style:normal;font-variant:normal;font-weight:normal;font-stretch:normal;font-size:42.79822922px;font-family:Spoopy;-inkscape-font-specification:'Spoopy, Normal';font-variant-ligatures:normal;font-variant-caps:normal;font-variant-numeric:normal;font-feature-settings:normal;text-align:start;writing-mode:lr-tb;text-anchor:start;fill:#ff0000;stroke-width:1.06995571"
         id="path1486" /><path
         d="m -19.287315,156.62279 q 0.06269,-2.06886 0.06269,-4.13772 0,-2.48681 -0.146283,-5.49606 l 8.212746,0.56424 q -0.543337,7.18876 -0.752313,17.1778 -0.208975,9.96814 -0.125385,23.46797 -8.129156,-0.22987 -8.714288,-0.66872 0.0418,-0.56423 0.08359,-1.12847 -5.433369,1.56732 -8.672493,1.60912 h -0.397053 q -3.824256,0 -5.767731,-1.14937 -2.068859,-1.21206 -2.298733,-5.55875 -0.104487,-1.83899 -0.104487,-4.07503 0,-3.05105 0.188078,-9.78006 0.313463,-6.77082 2.068859,-9.27853 1.776294,-2.5286 4.200413,-3.05104 1.253854,-0.25077 2.821172,-0.25077 1.37924,0 3.00925,0.20897 2.340529,0.31347 6.331965,1.54642 z m -0.919493,23.259 q 0.188078,-9.96814 0.501542,-16.27921 0.08359,-0.8777 0.16718,-1.81809 -3.489895,-1.35834 -5.287086,-1.35834 -0.208976,0 -0.397054,0.0209 -2.23604,0.22987 -3.09284,2.29873 -0.856801,2.04796 -0.982186,10.55328 -0.0209,0.50154 -0.0209,0.98218 0,4.51388 1.086674,5.74683 1.149366,1.33745 3.092841,1.33745 0.08359,0 0.16718,-0.0209 1.441933,-0.0209 4.764647,-1.46283 z"
         style="font-style:normal;font-variant:normal;font-weight:normal;font-stretch:normal;font-size:42.79822922px;font-family:Spoopy;-inkscape-font-specification:'Spoopy, Normal';font-variant-ligatures:normal;font-variant-caps:normal;font-variant-numeric:normal;font-feature-settings:normal;text-align:start;writing-mode:lr-tb;text-anchor:start;fill:#ff0000;stroke-width:1.06995571"
         id="path1488" /><path
         d="m -1.85874,153.78072 q 0.1044879,3.19733 0.2507709,7.04248 0.08359,2.69579 0.1671806,6.45735 3.1764311,0.20898 5.2034956,0.25078 h 0.2716685 q 2.1315524,0 2.6330942,-0.64783 0.5433369,-0.66872 1.0448786,-2.29873 0.4597466,-1.50463 0.4597466,-4.26311 v -0.48064 q -0.041795,-3.11374 -0.585132,-4.40939 -0.5433369,-1.31655 -1.4628301,-1.63001 -0.8985957,-0.33436 -3.1555335,-0.33436 -1.7344986,0 -4.8273394,0.31346 z m 0.5433369,18.84961 q 0.1253855,6.62453 0.2298733,15.61049 l -8.6098,-0.37616 q 0.062693,-4.49297 0.062693,-8.42172 0,-4.22131 -0.062693,-7.7739 -0.1671806,-6.8753 -0.4597462,-24.36657 l 8.0664627,-0.29256 q 0.020898,0.54334 0.041795,1.08667 3.8869485,-0.79411 6.6454281,-0.91949 1.6718059,-0.0627 2.8629675,-0.0627 1.1911617,0 1.8807816,0.0627 1.4001369,0.14628 2.7166849,0.8359 1.316547,0.66872 2.173347,1.83899 0.856801,1.17026 1.232957,4.15862 0.271668,2.38232 0.271668,5.49606 v 1.65091 q -0.104487,4.15861 -1.191161,7.06338 -1.065776,2.88386 -2.507709,3.59438 -0.438849,0.22987 -0.856801,0.39705 3.009251,2.36143 3.949642,6.81261 0.961288,4.68106 1.023981,5.9976 0.06269,1.31655 0.06269,2.71669 l -8.045566,0.71052 q -0.7105175,-9.15314 -1.5046252,-11.86983 -0.7941078,-2.73758 -2.8211724,-3.3645 -1.6718058,-0.50155 -5.1617005,-0.58514 z"
         style="font-style:normal;font-variant:normal;font-weight:normal;font-stretch:normal;font-size:42.79822922px;font-family:Spoopy;-inkscape-font-specification:'Spoopy, Normal';font-variant-ligatures:normal;font-variant-caps:normal;font-variant-numeric:normal;font-feature-settings:normal;text-align:start;writing-mode:lr-tb;text-anchor:start;fill:#ff0000;stroke-width:1.06995571"
         id="path1490" /><path
         d="m 36.049459,177.89652 q 6.687224,0.75231 7.272356,0.75231 0.125385,1.71361 0.125385,2.98836 0,1.90168 -0.292566,2.86296 -0.501542,1.58822 -2.92566,2.6331 -2.424118,1.04488 -5.558754,1.17026 -3.134636,0.12539 -4.931828,0.12539 -1.797191,0 -4.38849,-0.25077 -2.591299,-0.25077 -3.761563,-0.75232 -1.170264,-0.50154 -2.674889,-3.59438 -1.504626,-3.09284 -1.630011,-10.74135 -0.0209,-1.48373 -0.0209,-2.84207 0,-5.80953 0.397054,-8.94416 0.501542,-3.90785 2.173348,-4.86914 1.671806,-0.96128 4.179514,-1.58821 2.507709,-0.62693 5.475165,-0.91949 1.379239,-0.14629 2.862967,-0.14629 1.692703,0 3.489895,0.18808 3.385406,0.33436 4.639261,0.8777 1.253854,0.54334 1.922577,1.17026 0.668722,0.62693 1.170264,2.6122 0.292566,1.14937 0.292566,2.86297 0,1.29565 -0.167181,2.90476 -0.376156,3.76156 -0.877698,7.69031 l -15.965746,-0.33436 q 0,6.39465 0.585132,8.90236 0.585132,2.50771 2.75848,2.84207 0.835903,0.12539 1.54642,0.12539 1.170264,0 2.047963,-0.33436 1.421034,-0.54334 1.880781,-1.71361 0.397054,-0.98218 0.397054,-2.92566 0,-0.37615 -0.0209,-0.75231 z m -8.86057,-10.23981 9.027751,0.25077 q 0.543337,-3.57348 0.543337,-5.39157 0,-1.23296 -0.250771,-1.63001 -0.626927,-1.00309 -3.051046,-1.12847 -1.044878,-0.0627 -1.880781,-0.0627 -1.107572,0 -1.838987,0.10448 -1.295649,0.16718 -1.797191,1.67181 -0.501542,1.50462 -0.752312,6.18568 z"
         style="font-style:normal;font-variant:normal;font-weight:normal;font-stretch:normal;font-size:42.79822922px;font-family:Spoopy;-inkscape-font-specification:'Spoopy, Normal';font-variant-ligatures:normal;font-variant-caps:normal;font-variant-numeric:normal;font-feature-settings:normal;text-align:start;writing-mode:lr-tb;text-anchor:start;fill:#ff0000;stroke-width:1.06995571"
         id="path1492" /><path
         d="m 62.986428,167.63581 q -7.021585,-1.77629 -9.278523,-2.13155 -2.382323,-0.35526 -3.594382,-0.22987 -1.212059,0.12538 -2.006167,0.77321 -0.77321,0.62692 -1.546421,1.60911 -0.752312,0.96129 -1.191161,2.27784 -0.417952,1.29565 -0.480644,3.4481 -0.0418,2.15245 -0.0418,5.26618 0,3.11374 0.564235,5.43337 0.585132,2.34053 1.964372,3.15554 1.400137,0.8359 3.197328,0.8359 1.797192,0 3.949642,-0.39705 1.964372,-0.35526 7.293253,-2.11066 -0.08359,1.42104 -0.167181,2.98835 l 8.735186,-0.66872 q 0.898595,-20.54231 0.898595,-23.50977 0,-2.98835 -0.271668,-4.61836 -0.271669,-1.63001 -1.065777,-2.90476 -0.794107,-1.27476 -3.09284,-2.02707 -2.298733,-0.77321 -5.454267,-0.8359 -3.155533,-0.0627 -5.68414,0.31346 -2.507708,0.35526 -4.054129,0.94039 -1.54642,0.56424 -2.800275,2.17335 -1.232956,1.60911 -1.421034,4.47208 l 6.373759,1.6927 q 0.250771,-2.96745 0.752313,-4.17951 0.522439,-1.21206 2.31963,-1.42104 1.797192,-0.22987 3.657076,0.22988 1.880781,0.45974 2.15245,1.98527 0.271668,1.50462 0.376156,3.78246 0.0418,1.44193 -0.08359,3.65707 z m -0.940391,13.87599 q -5.496062,0.96129 -6.331965,0.81501 -0.919493,-0.14629 -1.567318,-0.29257 -0.626927,-0.14628 -0.8568,-1.08667 -0.208976,-0.94039 -0.271669,-3.4481 -0.0418,-2.52861 0.292567,-3.82426 0.334361,-1.29565 1.316547,-1.90168 1.003083,-0.60603 2.800274,-0.39705 1.650909,0.18808 5.182598,0.77321 -0.229873,3.03015 -0.564234,9.36211 z"
         style="font-style:normal;font-variant:normal;font-weight:normal;font-stretch:normal;font-size:42.79822922px;font-family:Spoopy;-inkscape-font-specification:'Spoopy, Normal';font-variant-ligatures:normal;font-variant-caps:normal;font-variant-numeric:normal;font-feature-settings:normal;text-align:start;writing-mode:lr-tb;text-anchor:start;fill:#ff0000;stroke-width:1.06995571"
         id="path1494" /><path
         d="m 90.88469,156.62279 q 0.06269,-2.06886 0.06269,-4.13772 0,-2.48681 -0.146283,-5.49606 l 8.212747,0.56424 q -0.543337,7.18876 -0.752313,17.1778 -0.208976,9.96814 -0.125386,23.46797 -8.129155,-0.22987 -8.714287,-0.66872 0.0418,-0.56423 0.08359,-1.12847 -5.433369,1.56732 -8.672493,1.60912 h -0.397054 q -3.824256,0 -5.76773,-1.14937 -2.06886,-1.21206 -2.298733,-5.55875 -0.104488,-1.83899 -0.104488,-4.07503 0,-3.05105 0.188078,-9.78006 0.313464,-6.77082 2.06886,-9.27853 1.776294,-2.5286 4.200412,-3.05104 1.253855,-0.25077 2.821173,-0.25077 1.379239,0 3.00925,0.20897 2.340528,0.31347 6.331965,1.54642 z m -0.919493,23.259 q 0.188078,-9.96814 0.501541,-16.27921 0.08359,-0.8777 0.167181,-1.81809 -3.489895,-1.35834 -5.287086,-1.35834 -0.208976,0 -0.397054,0.0209 -2.23604,0.22987 -3.092841,2.29873 -0.8568,2.04796 -0.982186,10.55328 -0.0209,0.50154 -0.0209,0.98218 0,4.51388 1.086674,5.74683 1.149366,1.33745 3.09284,1.33745 0.08359,0 0.167181,-0.0209 1.441932,-0.0209 4.764647,-1.46283 z"
         style="font-style:normal;font-variant:normal;font-weight:normal;font-stretch:normal;font-size:42.79822922px;font-family:Spoopy;-inkscape-font-specification:'Spoopy, Normal';font-variant-ligatures:normal;font-variant-caps:normal;font-variant-numeric:normal;font-feature-settings:normal;text-align:start;writing-mode:lr-tb;text-anchor:start;fill:#ff0000;stroke-width:1.06995571"
         id="path1496" /><path
         d="m 118.4486,163.93694 q -0.12539,-2.98835 -0.60603,-3.67797 -0.45975,-0.68962 -2.00617,-1.12847 -1.25386,-0.29256 -2.36143,-0.29256 -0.41795,0 -0.815,0.0418 -1.44194,0.16718 -2.77938,1.23296 -1.33744,1.06577 -1.65091,3.28092 -0.10449,0.71051 -0.10449,1.29565 0,1.29564 0.48065,2.04796 0.68962,1.12847 2.75848,1.29565 2.06886,0.14628 5.89311,0.56423 3.82426,0.41795 5.78863,1.06578 1.96437,0.64782 2.88387,2.27783 0.8568,1.56732 0.8568,3.63618 v 0.25077 q -0.0627,3.07194 -0.39706,5.41247 -0.31346,2.34053 -1.6927,4.03323 -1.37924,1.69271 -3.82426,2.38233 -2.44501,0.68962 -5.47516,0.8568 -1.14937,0.0627 -2.25694,0.0627 -1.79719,0 -3.469,-0.16718 -2.71668,-0.27167 -4.36759,-0.68962 -1.65091,-0.41795 -3.09284,-2.44502 -1.42103,-2.02706 -1.83899,-6.37376 l 8.71429,-1.37923 q 0.52244,4.45118 1.85989,5.45426 0.96128,0.75231 2.5286,0.75231 0.56424,0 1.23296,-0.10448 2.44502,-0.37616 3.13464,-1.48373 0.68962,-1.10757 0.7941,-3.19733 0.0209,-0.39705 0.0209,-0.79411 0,-2.40322 -0.33436,-3.59438 -0.41795,-1.48373 -4.13772,-1.6927 -3.71977,-0.22988 -7.64851,-0.58514 -3.92875,-0.37615 -5.30798,-2.08975 -1.21206,-1.46283 -1.21206,-4.47208 0,-0.48065 0.0418,-1.00309 0.20898,-3.76156 1.04488,-5.55875 0.8568,-1.81809 2.65399,-2.92566 1.81809,-1.10757 4.63926,-1.54642 2.48681,-0.37616 5.97671,-0.37616 h 0.8777 q 3.82425,0.0627 6.52004,1.12847 2.71668,1.06578 3.57348,2.82117 0.8568,1.7345 0.8568,5.45427 z"
         style="font-style:normal;font-variant:normal;font-weight:normal;font-stretch:normal;font-size:42.79822922px;font-family:Spoopy;-inkscape-font-specification:'Spoopy, Normal';font-variant-ligatures:normal;font-variant-caps:normal;font-variant-numeric:normal;font-feature-settings:normal;text-align:start;writing-mode:lr-tb;text-anchor:start;fill:#ff0000;stroke-width:1.06995571"
         id="path1498" /></g></g></svg>